<svg xmlns="http://www.w3.org/2000/svg" xmlns:xlink="http://www.w3.org/1999/xlink" width="442" height="248" viewBox="0 0 442 248">
    <defs>
        <linearGradient id="b" x1="0%" x2="81.274%" y1="100%" y2="50%">
            <stop offset="0%" stop-color="#1C849F"/>
            <stop offset="100%" stop-color="#87DDD0"/>
        </linearGradient>
        <path id="a" d="M2.612 0h436.776A2.612 2.612 0 0 1 442 2.612V248H0V2.612A2.612 2.612 0 0 1 2.612 0z"/>
        <path id="d" d="M257.604 129.512c0 71.528-57.667 129.514-128.803 129.514S0 201.04 0 129.512C0 57.982 57.665 0 128.8 0c71.137 0 128.804 57.983 128.804 129.512z"/>
        <path id="f" d="M260.44 130.965c0 72.332-58.303 130.968-130.222 130.968C58.3 261.933 0 203.297 0 130.965 0 58.634 58.3 0 130.218 0c71.92 0 130.221 58.634 130.221 130.965z"/>
    </defs>
    <g fill="none" fill-rule="evenodd">
        <mask id="c" fill="#fff">
            <use xlink:href="#a"/>
        </mask>
        <use fill="url(#b)" opacity=".508" xlink:href="#a"/>
        <g mask="url(#c)">
            <g transform="translate(175 -18)">
                <ellipse cx="246.108" cy="226.157" fill="#EFF6FF" fill-opacity=".4" rx="213.846" ry="213.678"/>
                <ellipse cx="215.407" cy="227.717" fill="#EFF6FF" fill-opacity=".4" opacity=".363" rx="215.407" ry="215.238"/>
                <g transform="translate(16.022 .292)">
                    <path stroke="#FFF" stroke-linecap="round" stroke-width="6.183" d="M47.29 150.707c-39.883 21.975-51.65 46.84-45.063 61.477 11.375 25.273 82.604 19.123 213.687-18.45"/>
                    <path stroke="#6FAC2F" stroke-linecap="round" stroke-width="6.183" d="M275.164 86.783c42.298-6.366 62.885.925 68.03 16.158 5.807 17.191 3.042 48.274-108.223 91.1"/>
                    <ellipse cx="174.155" cy="173.664" stroke="#6FAC2F" stroke-width="1.374" rx="62.198" ry="162.668" transform="scale(-1 1) rotate(-28 0 872.16)"/>
                    <ellipse cx="174.155" cy="173.604" stroke="#6FAC2F" stroke-width="1.374" rx="62.198" ry="164.68" transform="rotate(-41 174.155 173.604)"/>
                    <g transform="translate(46.045 44.151)">
                        <mask id="e" fill="#fff">
                            <use xlink:href="#d"/>
                        </mask>
                        <use fill="#FFF" xlink:href="#d"/>
                        <path stroke="#6FAC2F" stroke-width="3.71" d="M203.756 17.463c36.181 23.966 60.065 65.172 60.065 111.996 0 24.705-6.655 47.844-18.25 67.717a132.606 132.606 0 0 1-2.143 3.547c-25.629 2.845-36.352-6.69-38.525-19.309-2.005-11.645 11.067-41.282 3.865-54.62-7.205-13.333-29.944-23.217-35.74-48.73-7.864-34.63 23.386-57.463 29.39-61.486.45.29.892.59 1.338.885zM55.321 73.048c26.22-15.708 47.735-24.466 64.676-5.236 24.082 27.335-7.007 48.98-20.358 60.141-5.687 4.753-25.152 18.291-16.457 41.854 5.566 15.084 22.612 47.795-30.44 68.497-.598-.433-1.195-.868-1.786-1.31-32.604-24.434-53.72-63.504-53.72-107.535 0-19.139 3.998-37.336 11.186-53.806.265-.608.531-1.216.805-1.82 5.365 3.246 24.031 12.43 46.094-.785z" mask="url(#e)"/>
                        <g mask="url(#e)">
                            <g transform="translate(13.822 8.289)">
                                <mask id="g" fill="#fff">
                                    <use xlink:href="#f"/>
                                </mask>
                                <use fill="#BFE09E" xlink:href="#f"/>
                                <path fill="#DEFCC1" stroke="#6FAC2F" stroke-width="3.71" d="M189.935 9.174c36.18 23.966 60.064 65.173 60.064 111.996 0 24.705-6.655 47.844-18.25 67.717a132.605 132.605 0 0 1-2.143 3.547c-25.629 2.845-36.352-6.69-38.525-19.308-2.005-11.645 11.067-41.283 3.865-54.62-7.205-13.334-29.943-23.218-35.74-48.731-7.863-34.63 23.387-57.463 29.39-61.486.45.29.892.59 1.339.885zM41.5 64.76c26.22-15.708 47.734-24.466 64.675-5.236 24.082 27.335-7.006 48.98-20.357 60.142-5.688 4.752-25.153 18.29-16.458 41.854 5.566 15.083 22.612 47.794-30.44 68.496-.598-.433-1.195-.868-1.786-1.31-32.604-24.434-53.72-63.504-53.72-107.535 0-19.138 3.998-37.336 11.186-53.806.265-.608.531-1.216.805-1.819C.771 68.79 19.436 77.975 41.5 64.76z" mask="url(#g)"/>
                            </g>
                        </g>
                        <g stroke="#4A4A4A" stroke-linecap="round" stroke-width="6.183" mask="url(#e)" opacity=".1">
                            <path d="M-3.617 128.797c-39.883 21.975-45.428 41.25-38.84 55.886 11.374 25.273 82.603 19.123 213.687-18.45M297.127 72.58c5.807 17.191 3.042 48.274-108.223 91.1"/>
                        </g>
                    </g>
                    <path stroke="#6FAC2F" stroke-linecap="round" stroke-width="3.71" d="M110.595 61.39c18.911-10.965 40.852-17.239 64.25-17.239 71.137 0 128.804 57.983 128.804 129.512s-57.667 129.514-128.803 129.514-128.8-57.985-128.8-129.514c0-36.855 15.308-70.114 39.88-93.699m8.873-7.772a129.336 129.336 0 0 1 6.064-4.558"/>
                    <path stroke="#6FAC2F" stroke-width="1.374" d="M97.805 317.083c-30.33-16.127-20.727-93.505 21.45-172.828C161.432 64.932 220.211 13.701 250.541 29.828"/>
                    <path stroke="#6FAC2F" stroke-width="1.374" d="M66.089 48.947c-25.926 22.536 1.43 96.45 61.098 165.091 59.669 68.641 129.056 106.017 154.981 83.48"/>
                    <path stroke="#FFF" stroke-linecap="round" stroke-width="6.183" d="M2.227 212.184c11.375 25.273 82.604 19.123 213.687-18.45"/>
                    <path stroke="#6FAC2F" stroke-linecap="round" stroke-width="6.183" d="M343.194 102.941c5.807 17.191 3.042 48.274-108.223 91.1"/>
                </g>
            </g>
        </g>
        <g mask="url(#c)">
            <path fill="#59818A" d="M55.736 151.362c2.246 0 4.235.452 5.966 1.356 1.73.904 3.072 2.18 4.023 3.828.951 1.648 1.427 3.563 1.427 5.742 0 2.154-.476 4.061-1.427 5.723-.951 1.661-2.292 2.95-4.023 3.868-1.731.917-3.72 1.376-5.966 1.376-2.273 0-4.275-.459-6.006-1.376-1.73-.917-3.072-2.207-4.023-3.868-.952-1.662-1.427-3.57-1.427-5.723 0-2.18.475-4.094 1.427-5.742.951-1.648 2.292-2.924 4.023-3.828 1.731-.904 3.733-1.356 6.006-1.356zm0 5.104c-1.586 0-2.874.545-3.865 1.635-.991 1.09-1.487 2.513-1.487 4.267 0 1.755.496 3.177 1.487 4.267.99 1.09 2.279 1.635 3.865 1.635 1.559 0 2.834-.545 3.825-1.635.991-1.09 1.486-2.512 1.486-4.267 0-1.754-.495-3.177-1.486-4.267-.991-1.09-2.266-1.635-3.825-1.635zm28.937-5.144c2.379 0 4.275.745 5.689 2.233 1.413 1.49 2.12 3.483 2.12 5.982v13.478h-6.104v-11.684c0-1.355-.377-2.425-1.13-3.21-.753-.784-1.777-1.176-3.072-1.176-1.507.027-2.696.552-3.568 1.575-.872 1.024-1.308 2.333-1.308 3.928v10.567h-6.105v-21.453H77.3v3.748c1.48-2.605 3.938-3.934 7.373-3.988zm13.28-7.895h6.104v29.588h-6.104v-29.588zm12.209 8.135h6.105v21.453h-6.105v-21.453zm3.013-9.531c.977 0 1.777.319 2.398.957.62.638.931 1.462.931 2.472s-.31 1.835-.931 2.473c-.621.638-1.42.957-2.398.957-.952 0-1.738-.326-2.359-.977s-.932-1.469-.932-2.453c0-1.01.311-1.834.932-2.472.621-.638 1.407-.957 2.359-.957zm22.436 9.291c2.379 0 4.275.745 5.689 2.233 1.413 1.49 2.12 3.483 2.12 5.982v13.478h-6.104v-11.684c0-1.355-.377-2.425-1.13-3.21-.753-.784-1.777-1.176-3.072-1.176-1.507.027-2.696.552-3.568 1.575-.872 1.024-1.308 2.333-1.308 3.928v10.567h-6.105v-21.453h6.105v3.748c1.48-2.605 3.938-3.934 7.373-3.988zm22.238.04c3.436 0 6.046.997 7.83 2.991 1.783 1.994 2.675 4.772 2.675 8.334 0 .638-.013 1.13-.04 1.476h-15.3c.343 1.356 1.004 2.412 1.981 3.17.978.758 2.154 1.136 3.528 1.136a7.45 7.45 0 0 0 2.894-.578 7.649 7.649 0 0 0 2.497-1.695l3.211 3.27a10.793 10.793 0 0 1-3.944 2.812c-1.546.651-3.27.977-5.173.977-2.246 0-4.208-.452-5.887-1.356-1.678-.904-2.973-2.18-3.884-3.828-.912-1.649-1.368-3.55-1.368-5.703 0-2.18.463-4.1 1.387-5.762a9.741 9.741 0 0 1 3.885-3.868c1.665-.917 3.568-1.376 5.708-1.376zm4.757 9.172c-.053-1.41-.502-2.539-1.347-3.39-.846-.85-1.97-1.276-3.37-1.276-1.321 0-2.425.419-3.31 1.256-.885.838-1.447 1.974-1.685 3.41h9.712z"/>
            <path fill="#FFF" d="M53.318 80.966a26.484 26.484 0 0 0-4.876-2.233c-1.77-.611-3.224-.917-4.36-.917-.714 0-1.276.14-1.685.419-.41.279-.615.684-.615 1.216 0 .744.397 1.322 1.19 1.734.792.413 2.047.858 3.765 1.336 1.956.559 3.568 1.124 4.836 1.695 1.269.572 2.372 1.442 3.31 2.612.939 1.17 1.408 2.712 1.408 4.626 0 1.94-.51 3.582-1.527 4.925-1.017 1.342-2.391 2.346-4.122 3.01-1.731.665-3.667.997-5.807.997-2.379 0-4.764-.405-7.156-1.216-2.391-.81-4.46-1.92-6.203-3.33l3.092-6.3c1.4 1.223 3.111 2.253 5.133 3.09 2.022.838 3.76 1.256 5.213 1.256.898 0 1.599-.173 2.1-.518.503-.346.754-.838.754-1.476 0-.77-.41-1.362-1.229-1.774-.82-.412-2.088-.844-3.805-1.296-1.93-.505-3.528-1.03-4.797-1.575-1.268-.545-2.365-1.39-3.29-2.532-.925-1.144-1.387-2.646-1.387-4.507 0-1.807.475-3.382 1.427-4.725.95-1.342 2.292-2.373 4.023-3.09 1.731-.718 3.746-1.077 6.045-1.077 2.088 0 4.162.299 6.224.897 2.061.598 3.858 1.39 5.39 2.373l-3.051 6.38zm20.81 17.905c-.766.425-1.697.764-2.794 1.017-1.097.252-2.2.379-3.31.379-2.299 0-4.136-.638-5.51-1.915-1.374-1.276-2.061-3.017-2.061-5.223v-8.654H57.48v-5.144h2.973V73.31h7.968v6.021h5.311v5.144h-5.311v7.417c0 .692.158 1.21.475 1.556.317.345.767.518 1.348.518.502 0 1.321-.213 2.458-.638l1.427 5.543zM87.33 77.896c3.04 0 5.411.697 7.116 2.093C96.149 81.385 97 83.332 97 85.831v14.077h-7.848v-2.393c-.661.877-1.527 1.555-2.597 2.034-1.07.478-2.306.718-3.706.718-2.273 0-4.057-.619-5.352-1.855s-1.942-2.89-1.942-4.964c0-2.1.707-3.716 2.12-4.845 1.414-1.13 3.482-1.708 6.204-1.735h5.273v-.08c0-.904-.318-1.608-.952-2.113-.634-.505-1.559-.758-2.775-.758-.872 0-1.883.133-3.032.399-1.15.266-2.306.651-3.469 1.156l-1.982-5.343c3.647-1.489 7.11-2.233 10.386-2.233zm-1.823 17.107c.819 0 1.559-.2 2.22-.598a3.42 3.42 0 0 0 1.427-1.635v-1.954h-3.647c-1.612 0-2.418.678-2.418 2.033 0 .692.211 1.223.634 1.596.423.372 1.017.558 1.784.558zm30.602-17.107c1.533 0 2.887.339 4.063 1.016 1.176.678 2.088 1.642 2.735 2.892.648 1.25.972 2.698.972 4.346v13.758h-8.008V88.463c0-1.063-.284-1.914-.852-2.552-.568-.638-1.315-.957-2.24-.957-1.083.026-1.942.425-2.576 1.196-.635.771-.952 1.781-.952 3.03v10.728h-8.007V78.215h8.007v3.35c.767-1.197 1.725-2.108 2.874-2.732 1.15-.625 2.478-.937 3.984-.937zm34.25-7.577v29.589h-8.008v-2.473a7.376 7.376 0 0 1-2.577 2.034c-1.004.479-2.114.718-3.33.718-1.981 0-3.726-.465-5.232-1.396-1.506-.93-2.676-2.24-3.508-3.928-.833-1.688-1.249-3.662-1.249-5.921 0-2.207.403-4.141 1.21-5.803.805-1.661 1.948-2.944 3.428-3.848 1.48-.904 3.198-1.355 5.153-1.355 1.269 0 2.418.239 3.45.717a7.457 7.457 0 0 1 2.655 2.074V70.319h8.007zm-11.893 23.687c1.163 0 2.101-.445 2.815-1.336.713-.89 1.07-2.067 1.07-3.53 0-1.435-.357-2.598-1.07-3.488-.714-.89-1.652-1.336-2.815-1.336-1.189 0-2.14.445-2.854 1.336-.713.89-1.07 2.053-1.07 3.489 0 1.462.357 2.638 1.07 3.529.714.89 1.665 1.336 2.854 1.336zm-94.7 20.483c2.404 0 4.505.459 6.302 1.376 1.797.917 3.191 2.213 4.182 3.888.991 1.675 1.487 3.629 1.487 5.862 0 2.207-.496 4.154-1.487 5.842-.99 1.688-2.385 2.99-4.182 3.908-1.797.917-3.898 1.376-6.303 1.376s-4.512-.459-6.322-1.376c-1.81-.917-3.211-2.22-4.202-3.908-.991-1.688-1.487-3.635-1.487-5.842 0-2.233.496-4.187 1.487-5.862.99-1.675 2.391-2.97 4.202-3.888 1.81-.917 3.917-1.376 6.322-1.376zm0 6.38c-1.19 0-2.141.446-2.855 1.337-.713.89-1.07 2.053-1.07 3.489 0 1.462.357 2.632 1.07 3.509.714.877 1.665 1.316 2.854 1.316 1.163 0 2.101-.439 2.815-1.316.713-.877 1.07-2.047 1.07-3.51 0-1.435-.357-2.598-1.07-3.488-.714-.891-1.652-1.336-2.815-1.336zm36.786-6.1v21.693h-8.008v-3.23c-.74 1.17-1.671 2.06-2.794 2.671-1.124.612-2.399.917-3.826.917-1.506 0-2.834-.339-3.984-1.016-1.15-.678-2.041-1.642-2.675-2.892-.635-1.249-.952-2.711-.952-4.386v-13.758h8.008v11.485c0 1.063.264 1.907.792 2.532.529.625 1.23.937 2.101.937 1.031-.026 1.844-.425 2.438-1.196.595-.77.892-1.781.892-3.03v-10.728h8.008zm19.582 20.656c-.766.425-1.698.764-2.795 1.017-1.096.252-2.2.378-3.31.378-2.299 0-4.135-.638-5.51-1.914-1.374-1.276-2.061-3.017-2.061-5.224v-8.653h-2.973v-5.144h2.973v-6.021h7.968v6.021h5.312v5.144h-5.312v7.417c0 .691.158 1.21.475 1.555.318.346.767.519 1.348.519.502 0 1.322-.213 2.458-.638l1.427 5.543zm-65.367 8.002h7.452v2.193h-4.994v30.147h4.994v2.193h-7.452v-34.533zm143.062 0v34.533h-7.452v-2.193h4.995V145.62h-4.995v-2.193h7.452z"/>
        </g>
    </g>
</svg>
